{"title":"Wisin - Si Lo Hacemos Bien [4K Video]","uid":12684151,"size":566827157,"categoryP":"video","categoryS":"music_videos","magnet":"?xt=urn:btih:866b9b780c8c0c073d2597bbe36a390c2d581ba1&amp;dn=Wisin+-+Si+Lo+Hacemos+Bien+%5B4K+Video%5D&amp;tr=udp%3A%2F%2Ftracker.leechers-paradise.org%3A6969&amp;tr=udp%3A%2F%2Fzer0day.ch%3A1337&amp;tr=udp%3A%2F%2Fopen.demonii.com%3A1337&amp;tr=udp%3A%2F%2Ftracker.coppersurfer.tk%3A6969&amp;tr=udp%3A%2F%2Fexodus.desync.com%3A6969","seeders":1,"leechers":0,"uploader":"MusicVideos-HQ","files":1,"time":1446580954,"description":"Capturas: http://i.imgur.com/UGlTnnQ.jpg\r\n\r\n\r\nGeneral\r\n\r\nFormat                         : MPEG-4\r\nFormat profile                 : Base Media\r\nCodec ID                       : isom\r\nFile size                      : 541 MiB\r\nDuration                       : 5mn 43s\r\nOverall bit rate               : 13.2 Mbps\r\nWriting application            : Lavf55.33.100\r\n\r\nVideo\r\nID                             : 1\r\nFormat                         : AVC\r\nFormat/Info                    : Advanced Video Codec\r\nFormat profile                 :   \r\nFormat settings, CABAC         : No\r\nFormat settings, ReFrames      : 2 frames\r\nCodec ID                       : avc1\r\nCodec ID/Info                  : Advanced Video Coding\r\nDuration                       : 5mn 43s\r\nBit rate                       : 13.1 Mbps\r\nWidth                          : 3 840 pixels\r\nHeight                         : 2 160 pixels\r\nDisplay aspect ratio           : 16:9\r\nFrame rate mode                : Variable\r\nFrame rate                     : 23.976 fps\r\nMinimum frame rate             : 23.974 fps\r\nMaximum frame rate             : 90 000.000 fps\r\nColor space                    : YUV\r\nChroma subsampling             : 4:2:0\r\nBit depth                      : 8 bits\r\nScan type                      : Progressive\r\nBits/(Pixel*Frame)             : 0.066\r\nStream size                    : 535 MiB (99%)\r\n\r\nAudio\r\nID                             : 2\r\nFormat                         : AAC\r\nFormat/Info                    : Advanced Audio Codec\r\nFormat profile                 : LC\r\nCodec ID                       : 40\r\nDuration                       : 5mn 43s\r\nBit rate mode                  : Constant\r\nBit rate                       : 126 Kbps\r\nChannel(s)                     : 2 channels\r\nChannel positions              : Front: L R\r\nSampling rate                  : 44.1 KHz\r\nCompression mode               : Lossy\r\nStream size                    : 5.14 MiB (1%)","torrent":{"xt":"urn:btih:866b9b780c8c0c073d2597bbe36a390c2d581ba1","amp;dn":"Wisin+-+Si+Lo+Hacemos+Bien+%5B4K+Video%5D","amp;tr":["udp%3A%2F%2Ftracker.leechers-paradise.org%3A6969","udp%3A%2F%2Fzer0day.ch%3A1337","udp%3A%2F%2Fopen.demonii.com%3A1337","udp%3A%2F%2Ftracker.coppersurfer.tk%3A6969","udp%3A%2F%2Fexodus.desync.com%3A6969"],"infoHash":"866b9b780c8c0c073d2597bbe36a390c2d581ba1","infoHashBuffer":{"type":"Buffer","data":[134,107,155,120,12,140,12,7,61,37,151,187,227,106,57,12,45,88,27,161]},"announce":[],"urlList":[]}}